<?xml version="1.0" standalone="no"?>
<!DOCTYPE svg PUBLIC "-//W3C//DTD SVG 20010904//EN"
 "http://www.w3.org/TR/2001/REC-SVG-20010904/DTD/svg10.dtd">
<svg version="1.0" xmlns="http://www.w3.org/2000/svg"
 width="225.000000pt" height="225.000000pt" viewBox="0 0 225.000000 225.000000"
 preserveAspectRatio="xMidYMid meet">
<metadata>
Created by potrace 1.14, written by Peter Selinger 2001-2017
</metadata>
<g transform="translate(0.000000,225.000000) scale(0.100000,-0.100000)"
fill="#000000" stroke="none">
<path d="M2162 2190 c84 -151 88 -157 88 -131 0 28 -70 149 -102 177 -17 15
-13 4 14 -46z"/>
<path d="M2016 2175 c2 -22 10 -84 18 -137 7 -54 9 -98 4 -98 -4 0 -8 4 -8 10
0 11 -195 186 -225 202 -11 6 35 -46 101 -115 67 -69 128 -141 137 -159 10
-23 21 -114 33 -298 17 -246 19 -260 27 -190 4 41 7 153 5 248 -2 94 -3 172
-2 172 1 0 33 -41 71 -90 61 -81 68 -88 71 -65 4 27 -7 44 -103 165 -48 60
-53 72 -69 160 -20 106 -69 265 -60 195z"/>
<path d="M1146 2147 c3 -10 9 -15 12 -12 3 3 0 11 -7 18 -10 9 -11 8 -5 -6z"/>
<path d="M1164 2110 c3 -8 25 -66 51 -129 44 -111 95 -278 95 -313 0 -13 -88
-74 -95 -66 -1 2 -12 21 -24 43 -12 23 -19 29 -15 15 4 -14 7 -41 7 -60 0 -33
0 -33 4 -5 l5 30 12 -32 c24 -68 159 -383 162 -380 4 4 -69 199 -114 305 l-32
73 36 15 c70 29 74 20 108 -226 28 -197 28 -202 18 -196 -6 4 -5 -7 1 -25 l12
-31 3 43 c5 62 -17 273 -38 371 -10 46 -17 84 -16 85 1 1 24 5 51 8 l51 7 73
-109 c41 -59 79 -112 84 -118 14 -14 -28 57 -85 144 -27 40 -47 75 -44 78 12
12 117 -9 123 -24 4 -9 24 -82 45 -162 21 -80 35 -126 32 -101 -3 25 -16 89
-30 143 -13 54 -24 101 -24 104 0 3 27 -30 59 -73 61 -80 163 -184 237 -242
73 -56 57 -35 -57 75 -106 103 -204 215 -211 242 -2 7 -13 25 -26 39 -13 15
-36 63 -51 107 -35 101 -92 237 -97 232 -2 -2 14 -49 36 -105 22 -55 40 -107
40 -115 0 -8 9 -36 21 -62 11 -25 18 -49 16 -52 -3 -2 -22 0 -44 6 -21 6 -50
11 -65 11 -28 0 -33 6 -168 210 -28 41 -55 74 -61 72 -6 -1 -8 2 -4 8 4 6 2
17 -4 24 -6 8 -27 45 -47 82 -19 38 -33 62 -30 54z m179 -313 c43 -65 77 -121
77 -125 0 -4 -20 -8 -45 -10 -32 -2 -45 1 -45 10 0 11 -52 178 -76 243 -12 33
8 7 89 -118z"/>
<path d="M373 1890 c-1 -550 -2 -560 -20 -566 -10 -3 -38 -14 -62 -25 -24 -11
-45 -18 -47 -16 -2 2 -22 57 -43 123 -22 65 -40 109 -41 97 0 -12 16 -70 35
-129 35 -106 35 -108 16 -128 -22 -25 -51 -80 -51 -98 0 -7 8 1 19 17 20 32
59 71 65 64 2 -2 26 -49 54 -104 51 -103 147 -241 198 -285 l29 -25 -20 25
c-11 14 -23 27 -26 30 -3 3 -6 14 -6 25 -1 11 -11 54 -22 95 -17 60 -51 269
-51 310 0 5 15 10 33 13 l32 3 -31 8 c-28 7 -32 13 -38 53 -3 25 -6 100 -5
167 1 97 3 113 10 81 36 -156 133 -378 227 -516 27 -41 89 -114 137 -164 48
-49 68 -67 44 -38 -65 76 -68 80 -63 86 3 3 -4 24 -17 48 -24 48 -78 179 -74
179 2 0 12 -14 23 -32 36 -56 164 -178 245 -231 42 -29 77 -57 77 -63 0 -14
-47 -84 -69 -102 -14 -11 -13 -11 7 -2 13 7 37 33 54 60 l30 48 51 -23 c29
-13 65 -27 81 -31 26 -6 28 -5 15 8 -8 9 -18 14 -22 11 -10 -6 -89 28 -82 35
3 3 -2 14 -12 24 -14 16 -15 25 -3 91 18 99 16 292 -4 412 -9 54 -19 101 -23
105 -3 3 -3 -8 0 -25 23 -115 30 -252 21 -385 -6 -77 -14 -143 -17 -147 -4 -3
-14 0 -22 7 -25 21 -145 205 -192 295 -52 98 -57 92 -7 -8 43 -86 126 -215
178 -276 53 -63 33 -76 -40 -26 -175 121 -334 321 -389 493 -10 29 -19 51 -22
49 -12 -13 92 -287 159 -421 16 -32 27 -60 25 -62 -10 -10 -118 158 -175 271
-110 221 -148 388 -166 735 -1 36 -3 -27 -3 -140z m7 -617 c0 -54 31 -203 59
-290 16 -48 28 -90 26 -92 -10 -9 -205 327 -205 353 0 8 92 55 108 56 7 0 12
-12 12 -27z m360 -274 c0 -6 -4 -7 -10 -4 -5 3 -10 11 -10 16 0 6 5 7 10 4 6
-3 10 -11 10 -16z m316 -96 c-7 -7 -26 7 -26 19 0 6 6 6 15 -2 9 -7 13 -15 11
-17z"/>
<path d="M1720 1982 c17 -35 46 -103 65 -151 35 -93 184 -543 188 -570 1 -9 5
-21 9 -26 12 -19 95 -368 119 -498 l23 -129 -29 -54 c-34 -63 -151 -188 -242
-257 -160 -122 -359 -223 -528 -267 -89 -23 -102 -29 -69 -29 61 -1 169 39
383 143 30 14 58 26 62 26 4 0 12 -14 18 -32 11 -30 9 -34 -34 -78 -25 -25
-45 -50 -45 -55 0 -12 108 94 122 120 10 17 9 18 -4 8 -12 -11 -17 -9 -26 11
-10 22 -8 26 16 35 l27 11 -30 -6 c-24 -4 -19 2 28 30 32 19 77 50 100 67 74
57 196 192 225 249 l27 55 7 -45 c13 -85 19 -285 11 -350 l-8 -65 -99 -9
c-107 -9 -121 -6 -189 51 -16 13 -33 23 -39 23 -13 0 90 -88 125 -106 15 -8
27 -19 27 -25 0 -6 5 -7 10 -4 8 5 8 11 1 19 -8 10 8 15 72 23 45 6 83 10 85
8 2 -1 -6 -26 -17 -54 -11 -30 -15 -51 -9 -49 6 2 23 33 37 69 25 61 26 73 25
259 0 168 -4 215 -27 340 -42 229 -168 685 -287 1040 -33 99 -116 281 -144
315 -9 11 -2 -8 14 -43z"/>
<path d="M135 1618 c-33 -103 -46 -477 -21 -633 9 -55 18 -118 22 -140 l6 -40
-61 63 c-34 35 -59 67 -56 71 2 4 -2 8 -10 8 -32 0 -12 -36 46 -86 34 -28 67
-55 74 -59 7 -4 26 -46 43 -94 17 -47 38 -99 47 -115 9 -15 13 -19 9 -8 -3 11
-17 51 -30 89 -61 176 -90 424 -80 696 4 102 11 202 15 223 8 34 5 53 -4 25z"/>
<path d="M951 1580 c0 -8 4 -24 9 -35 5 -13 9 -14 9 -5 0 8 -4 24 -9 35 -5 13
-9 14 -9 5z"/>
<path d="M152 1550 c0 -14 2 -19 5 -12 2 6 2 18 0 25 -3 6 -5 1 -5 -13z"/>
<path d="M1011 1554 c0 -11 3 -14 6 -6 3 7 2 16 -1 19 -3 4 -6 -2 -5 -13z"/>
<path d="M1194 1325 c0 -183 -5 -263 -18 -338 -21 -118 -16 -139 7 -29 39 182
47 356 24 522 -12 81 -12 73 -13 -155z"/>
<path d="M973 1500 c6 -23 50 -249 60 -310 3 -14 3 5 0 41 -4 68 -47 277 -59
288 -4 3 -4 -5 -1 -19z"/>
<path d="M740 1415 c0 -5 5 -17 10 -25 5 -8 10 -10 10 -5 0 6 -5 17 -10 25 -5
8 -10 11 -10 5z"/>
<path d="M1675 1290 c3 -5 8 -10 11 -10 2 0 4 5 4 10 0 6 -5 10 -11 10 -5 0
-7 -4 -4 -10z"/>
<path d="M1714 1110 c-93 -24 -200 -79 -243 -124 -19 -20 -32 -36 -28 -36 4 0
3 -9 -3 -20 -9 -17 -8 -19 7 -13 16 6 17 5 3 -13 -14 -18 -14 -18 5 -4 11 8
33 25 49 38 63 50 210 110 324 132 65 12 89 31 61 48 -27 17 -92 14 -175 -8z"/>
<path d="M1460 1046 c-25 -18 -52 -41 -60 -51 -8 -10 13 3 48 30 54 42 69 56
60 55 -2 0 -23 -15 -48 -34z"/>
<path d="M0 835 c0 -11 19 -55 43 -97 89 -164 176 -257 299 -324 57 -31 60
-34 32 -34 -53 0 -196 41 -283 81 -90 42 -117 45 -54 7 63 -39 130 -68 214
-90 79 -21 79 -21 90 -62 20 -80 50 -143 87 -181 63 -65 239 -135 337 -134 17
0 -16 11 -73 25 -166 38 -257 98 -302 198 -15 34 -30 77 -34 97 l-6 36 92 5
c107 6 184 35 233 90 l30 33 -30 -26 c-50 -43 -147 -79 -213 -79 -115 0 -317
190 -423 398 -21 42 -39 68 -39 57z"/>
<path d="M640 760 c-24 -8 -24 -8 5 -8 17 0 41 4 55 8 24 8 24 8 -5 8 -16 0
-41 -4 -55 -8z"/>
<path d="M640 714 c-127 -21 -206 -48 -270 -92 -28 -19 -30 -22 -10 -16 21 6
23 5 13 -8 -10 -11 -10 -17 0 -28 6 -7 7 -10 1 -7 -6 3 -11 0 -11 -8 0 -10 11
-8 41 10 65 37 152 64 286 90 69 13 119 24 111 24 -8 1 -19 8 -26 17 -12 17
-85 26 -135 18z"/>
<path d="M1300 531 c-116 -33 -246 -95 -267 -127 -33 -51 18 -183 88 -231 54
-37 97 -53 54 -21 -81 62 -90 74 -89 125 1 58 35 141 72 175 36 34 140 73 233
89 l76 12 43 -29 c24 -16 52 -41 63 -56 29 -39 33 -112 9 -183 -19 -56 -19
-58 -2 -35 63 83 40 223 -47 283 -51 35 -107 35 -233 -2z m-195 -123 c-13 -24
-27 -65 -31 -93 -6 -43 -9 -46 -15 -25 -13 47 -10 100 9 119 13 14 49 39 59
41 1 0 -9 -19 -22 -42z"/>
<path d="M0 455 c0 -32 233 -455 251 -455 14 0 11 26 -6 40 -8 7 -15 16 -15
21 0 5 -12 28 -26 50 -22 36 -50 85 -88 154 -6 11 -13 22 -16 25 -3 3 -23 39
-44 80 -39 76 -56 101 -56 85z"/>
<path d="M2011 33 c13 -16 25 -30 27 -32 1 -2 4 -2 7 1 7 7 -34 58 -47 58 -7
0 -1 -12 13 -27z"/>
</g>
</svg>
